# xmcd CD database file generated by freedbAccess_ocx
#
# Track frame offsets:
#       150
#       15541
#       32082
#       43751
#       56899
#       74219
#       88038
#       105206
#       118151
#       129975
#       141110
#       154846
#       179690
#       196910
#
# Disc length: 2798 seconds
#
# Revision: 0
# Processed by: cddbd v1.4PL0 Copyright (c) Steve Scherf et al.
# Submitted via: CDnGo 2.00
#
DISCID=c90aec0e
DTITLE=Various Artist - More Songs Of Route 66: Roadside Attractions
DYEAR=2001
DGENRE=Country
TTITLE0=Marcia Ball - Marcia Ball - Introduction-Route 66
TTITLE1=Randy Garibay - Randy Garibay - Sweet Home Chicago
TTITLE2=Gary Primich - Gary Primich - You Came A Long Way From St. Louis
TTITLE3=Maryann Price - Maryann Price - Hoppin' In Joplin
TTITLE4=Jimmy LaFave and Night Tribe - Jimmy LaFave and Night Tribe - Oklahoma Hills
TTITLE5=Jason Roberts - Jason Roberts - T-U-L-S-A Straight Ahead
TTITLE6=Cindy Cashdollar - Cindy Cashdollar - Midnight In Amarillo
TTITLE7=Dale Watson - Dale Watson - Tucumcari, Here I Come
TTITLE8=Asleep At The Wheel - Asleep At The Wheel - Albuquerque
TTITLE9=Two High String Band - Two High String Band - Goodbye, California (Hello, Illinois)
TTITLE10=Dale Watson - Dale Watson - Gallop To Gallup
TTITLE11=Red Dirt Rangers - Red Dirt Rangers - Arizona State Line
TTITLE12=The Leroi Brothers - The Leroi Brothers - California Sun
TTITLE13=Steve James - Steve James - 66 Highway Blues
EXTD=
EXTT0=
EXTT1=
EXTT2=
EXTT3=
EXTT4=
EXTT5=
EXTT6=
EXTT7=
EXTT8=
EXTT9=
EXTT10=
EXTT11=
EXTT12=
EXTT13=
PLAYORDER=
